<svg width="49" height="48" viewBox="0 0 49 48" fill="none" xmlns="http://www.w3.org/2000/svg">
<path d="M24.2739 0C11.0097 0 0.273926 10.7197 0.273926 23.9278C0.273926 37.136 11.0097 47.8556 24.2739 47.8556C37.5382 47.8556 48.2739 37.136 48.2739 23.9278C48.2739 10.7197 37.5382 0 24.2739 0ZM24.2739 43.0701C13.6537 43.0701 5.05946 34.4758 5.05946 23.8557C5.05946 13.2355 13.6537 4.64131 24.2739 4.64131C34.8942 4.64131 43.4885 13.2355 43.4885 23.8557C43.4885 34.4758 34.8942 43.0701 24.2739 43.0701Z" fill="#1570EF"/>
<path d="M31.1455 28.3551C32.5152 26.9855 32.5152 24.7679 31.1455 23.3982C29.7758 22.0285 27.5583 22.0285 26.1886 23.3982C24.8189 24.7679 24.8189 26.9855 26.1886 28.3551C27.5583 29.7248 29.7758 29.7248 31.1455 28.3551Z" fill="#1570EF"/>
<path d="M22.3593 19.5689C23.729 18.1992 23.729 15.9817 22.3593 14.612C20.9896 13.2423 18.772 13.2423 17.4023 14.612C16.0326 15.9817 16.0326 18.1992 17.4023 19.5689C18.772 20.9386 20.9896 20.9386 22.3593 19.5689Z" fill="#1570EF"/>
<path d="M24.2737 2.67896C22.7318 2.67896 21.4808 3.92992 21.4808 5.47185V8.26475C21.4808 9.80668 22.7318 11.0576 24.2737 11.0576C25.8156 11.0576 27.0666 9.80668 27.0666 8.26475V5.47185C27.0666 3.92992 25.8156 2.67896 24.2737 2.67896Z" fill="#1570EF"/>
<path d="M24.2737 36.8257C22.7318 36.8257 21.4808 38.0767 21.4808 39.6186V42.4115C21.4808 43.9534 22.7318 45.2044 24.2737 45.2044C25.8156 45.2044 27.0666 43.9534 27.0666 42.4115V39.6186C27.0666 38.0767 25.8156 36.8257 24.2737 36.8257Z" fill="#1570EF"/>
<path d="M45.4809 21.1349H42.6881C41.1461 21.1349 39.8952 22.3858 39.8952 23.9278C39.8952 25.4697 41.1461 26.7206 42.6881 26.7206H45.4809C47.0229 26.7206 48.2738 25.4697 48.2738 23.9278C48.2738 22.3858 47.0229 21.1349 45.4809 21.1349Z" fill="#1570EF"/>
<path d="M8.85952 21.1349H6.06662C4.52469 21.1349 3.27373 22.3858 3.27373 23.9278C3.27373 25.4697 4.52469 26.7206 6.06662 26.7206H8.85952C10.4015 26.7206 11.6524 25.4697 11.6524 23.9278C11.6524 22.3858 10.4015 21.1349 8.85952 21.1349Z" fill="#1570EF"/>
</svg>