<svg width="46" height="48" viewBox="0 0 46 48" fill="none" xmlns="http://www.w3.org/2000/svg">
<path d="M44.4824 11.6294L23.8607 1.31137C23.2983 1.03337 22.6839 1.03337 22.1215 1.31137L1.49971 11.6294C0.595032 12.0714 0.595032 13.3874 1.49971 13.8294L3.67561 14.9634C3.49971 15.2874 3.37168 15.6414 3.30565 16.0146C2.65921 16.3194 2.18752 16.9794 2.18752 17.7414C2.18752 18.3654 2.49158 18.9234 2.97749 19.2774L1.05765 30.6726C0.991615 31.0554 1.2017 31.4314 1.54363 31.5894L5.91124 33.6774C6.05328 33.7434 6.21137 33.7734 6.36145 33.7734C6.59761 33.7734 6.82977 33.6984 7.01769 33.5514L12.7903 28.8546L22.1215 33.5554C22.4028 33.6954 22.7138 33.7614 23.0008 33.7614C23.2877 33.7614 23.598 33.6954 23.8787 33.5554L44.4944 23.2374C45.399 22.7954 45.399 21.4794 44.4944 21.0374L39.7623 18.6894L44.4824 16.4454C45.387 16.0034 45.387 14.6874 44.4824 14.2454V11.6294ZM36.5233 26.2074L25.19 32.0214L16.2213 27.5274C15.9759 27.4074 15.6918 27.3834 15.435 27.4614L9.22585 29.3214L14.619 24.8514C14.9189 24.6054 15.0949 24.2414 15.0949 23.8614C15.0949 22.9574 14.355 22.2294 13.435 22.2294C12.971 22.2294 12.5551 22.4214 12.251 22.7374L5.91124 28.9914L3.95546 28.0414L5.63571 18.0894C5.99566 18.1974 6.38368 18.2514 6.78371 18.2514C9.12353 18.2514 11.0239 16.3714 11.0239 14.0574C11.0239 13.9914 11.0219 13.9274 11.0199 13.8614L22.9989 8.15737L36.5233 15.2574V26.2074Z" fill="#1570EF"/>
</svg>